<?xml version="1.0" encoding="UTF-8"?>
<svg version="1.1" xmlns="http://www.w3.org/2000/svg" width="256" height="256">
<path d="M0 0 C1.67406744 -0.00323113 3.34813462 -0.00659641 5.02220154 -0.01008606 C8.51570282 -0.01602575 12.00917958 -0.01793169 15.50268555 -0.01733398 C19.01315532 -0.01725333 22.5234929 -0.02410728 26.03393555 -0.0378418 C43.55348709 -0.10524047 61.03387771 -0.07235519 78.5234375 1.0546875 C79.7456752 1.13241898 80.9679129 1.21015045 82.22718811 1.29023743 C96.49768061 2.31941922 108.27977998 3.26581908 118.484375 14.01171875 C123.81856698 20.54048588 125.40603703 26.8509183 125.24609375 35.16796875 C126.19484375 35.08546875 127.14359375 35.00296875 128.12109375 34.91796875 C136.06517692 34.96611471 142.84127717 38.91843435 148.4921875 44.23828125 C154.00961065 50.30867554 157.48734181 56.97233245 157.51351929 65.24708557 C157.52631424 67.0788031 157.52631424 67.0788031 157.53936768 68.94752502 C157.53866873 70.29257215 157.53774572 71.63761918 157.53662109 72.98266602 C157.54260826 74.4054703 157.54941424 75.82827133 157.55697632 77.25106812 C157.57461916 81.10837304 157.57933082 84.9655892 157.58060789 88.82293057 C157.58203042 91.23296038 157.58630181 93.64296766 157.59160233 96.05299187 C157.61009316 104.46071683 157.61827366 112.86837842 157.61669922 121.27612305 C157.61549635 129.1146083 157.63662945 136.95281885 157.66818655 144.79123455 C157.69432147 151.52256554 157.70506777 158.2538066 157.7037884 164.98518795 C157.70327817 169.00504564 157.70899538 173.02465885 157.7301445 177.04446602 C157.74948158 180.82272997 157.74968296 184.60051496 157.73511124 188.37879562 C157.73301673 189.76553864 157.73776225 191.1523113 157.74983215 192.53900337 C157.76523639 194.43122059 157.75359936 196.32360051 157.74057007 198.21583557 C157.7416596 199.27493417 157.74274914 200.33403276 157.74387169 201.42522526 C157.11498525 204.89037318 156.02903419 206.06428625 153.24609375 208.16796875 C148.24776285 208.97415115 145.49388092 208.69752995 141.34375 205.78125 C139.98339466 204.69996768 138.63894605 203.5984584 137.30859375 202.48046875 C135.82204276 201.28722679 134.33505027 200.09453469 132.84765625 198.90234375 C132.09129883 198.28552734 131.33494141 197.66871094 130.55566406 197.03320312 C126.82499139 194.02027086 123.00245186 191.1301845 119.18359375 188.23046875 C117.83834863 187.20077298 116.49328976 186.17083383 115.1484375 185.140625 C114.52649002 184.68385376 113.90454254 184.22708252 113.26374817 183.75646973 C111.24609375 182.16796875 111.24609375 182.16796875 109.78860474 180.58329773 C104.65360802 175.51295078 98.99260397 175.52765146 92.16485786 175.51331615 C89.47126582 175.54043772 86.77907443 175.59650745 84.0859375 175.65234375 C82.1762569 175.66866551 80.26654843 175.6819739 78.35682678 175.69244385 C73.31959115 175.72663669 68.28343668 175.79495039 63.2467041 175.87255859 C54.31858115 176.00491669 45.38972706 176.08123029 36.4609375 176.15234375 C35.49902874 176.16069748 34.53711998 176.16905121 33.54606247 176.17765808 C-29.16316428 176.67396804 -29.16316428 176.67396804 -42.87890625 163.48046875 C-45.75390625 160.49285354 -45.75390625 160.49285354 -45.75390625 158.16796875 C-50.89306197 160.95140392 -55.40083587 164.06137099 -59.94140625 167.73046875 C-61.70620541 169.14042059 -63.47162106 170.54954302 -65.23974609 171.95532227 C-66.48118958 172.94955796 -67.70765264 173.96247202 -68.9296875 174.98046875 C-71.03028651 176.34788224 -72.26426535 176.60060617 -74.75390625 176.60546875 C-75.41390625 176.62480469 -76.07390625 176.64414063 -76.75390625 176.6640625 C-79.70474052 175.93211728 -80.84783655 174.50366699 -82.75390625 172.16796875 C-83.25727081 169.45480919 -83.25727081 169.45480919 -83.26184082 166.28744507 C-83.27312012 165.08475983 -83.28439941 163.88207458 -83.29602051 162.64294434 C-83.28792358 161.32652954 -83.27982666 160.01011475 -83.27148438 158.65380859 C-83.27690588 157.25073521 -83.2840287 155.84766751 -83.29272461 154.4446106 C-83.31096804 150.63423838 -83.30388384 146.82429919 -83.29120827 143.01391935 C-83.28107377 139.02006084 -83.2904763 135.02623914 -83.29675293 131.03237915 C-83.30403311 124.31888185 -83.2944373 117.60556044 -83.27539062 110.89208984 C-83.25367421 103.14857762 -83.2606334 95.40548755 -83.28269625 87.66198575 C-83.30090342 81.00359327 -83.30338111 74.34532726 -83.29294157 67.6869179 C-83.28672887 63.71494877 -83.28580819 59.74317732 -83.29908752 55.77122116 C-83.31072117 52.0298422 -83.302485 48.2890013 -83.2795105 44.5476799 C-83.27177386 42.53384879 -83.28351876 40.51997172 -83.29602051 38.50616455 C-83.19806436 27.91439405 -81.04414177 19.71533325 -73.67578125 11.921875 C-65.41085425 4.37928918 -56.62761364 2.93488092 -45.81640625 2.10546875 C-44.88505859 2.02748047 -43.95371094 1.94949219 -42.99414062 1.86914062 C-39.91515919 1.61758306 -36.83506131 1.39139339 -33.75390625 1.16796875 C-32.60031616 1.08274963 -31.44672607 0.99753052 -30.25817871 0.909729 C-20.16185652 0.21651908 -10.11799751 0.00471256 0 0 Z M-19.75390625 17.16796875 C-20.48685913 17.20061829 -21.21981201 17.23326782 -21.97497559 17.26690674 C-26.31255686 17.46281818 -30.64827198 17.68040812 -34.98321533 17.92807007 C-36.93039408 18.03878877 -38.8780364 18.14126061 -40.82568359 18.2434082 C-48.8158519 18.75666364 -56.19084209 19.43881322 -62.69140625 24.41796875 C-67.50824994 30.840427 -67.03277351 38.00040475 -66.98095703 45.70288086 C-66.98124908 46.8450708 -66.98154114 47.98726074 -66.98184204 49.1640625 C-66.98045309 52.9245575 -66.9649121 56.68485228 -66.94921875 60.4453125 C-66.94548708 63.05847566 -66.94264084 65.67164023 -66.94064331 68.2848053 C-66.93444141 74.45052634 -66.91804817 80.61617598 -66.89794433 86.78186566 C-66.87554505 93.80485889 -66.8645818 100.82785564 -66.85455346 107.85087574 C-66.83368071 122.28994348 -66.79852995 136.72895511 -66.75390625 151.16796875 C-65.30710456 150.20840655 -63.86095571 149.24785995 -62.41508484 148.28689575 C-61.60969111 147.75209658 -60.80429739 147.2172974 -59.9744978 146.66629219 C-57.62549554 145.08132482 -55.36978825 143.41936115 -53.1484375 141.66015625 C-52.39240234 141.06589844 -51.63636719 140.47164063 -50.85742188 139.859375 C-50.10138672 139.25996094 -49.34535156 138.66054687 -48.56640625 138.04296875 C-47.03283811 136.83002065 -45.49771518 135.61903535 -43.9609375 134.41015625 C-42.96284058 133.61907471 -42.96284058 133.61907471 -41.94458008 132.81201172 C-41.22165771 132.26947754 -40.49873535 131.72694336 -39.75390625 131.16796875 C-38.86501709 130.44391846 -37.97612793 129.71986816 -37.06030273 128.97387695 C-32.68883089 126.58623927 -29.52206817 126.76529042 -24.64453125 127.03125 C-23.29635567 127.07733902 -23.29635567 127.07733902 -21.92094421 127.12435913 C-19.97115054 127.19171902 -18.02164066 127.2677288 -16.07247925 127.35140991 C-10.78685215 127.57371419 -5.49916785 127.71831704 -0.2109375 127.86328125 C0.89031967 127.89429428 1.99157684 127.92530731 3.12620544 127.95726013 C28.98158201 128.62283202 54.99289796 127.85572546 80.80859375 126.29296875 C82.55378296 126.19375122 82.55378296 126.19375122 84.33422852 126.0925293 C94.80797454 125.46497778 94.80797454 125.46497778 103.86547852 120.71899414 C106.92186123 117.14699886 108.34323029 114.56992237 108.5559082 109.95874023 C108.59693161 109.07702652 108.63795502 108.19531281 108.68022156 107.28688049 C108.71871719 106.31822556 108.75721283 105.34957062 108.796875 104.3515625 C108.83871414 103.33525253 108.88055328 102.31894257 108.92366028 101.27183533 C109.36643357 89.49908215 109.43217708 77.72647727 109.43139648 65.9465332 C109.4336222 62.18234566 109.45198091 58.41843446 109.47070312 54.65429688 C109.4736314 52.2330739 109.47561997 49.81184956 109.4765625 47.390625 C109.48734077 45.72339134 109.48734077 45.72339134 109.49833679 44.0224762 C109.49031692 34.19818792 109.49031692 34.19818792 106.01953125 25.14453125 C105.32730469 24.47550781 105.32730469 24.47550781 104.62109375 23.79296875 C103.95207031 23.10074219 103.95207031 23.10074219 103.26953125 22.39453125 C96.52027187 18.30328136 87.6960736 18.56522854 80.05859375 18.10546875 C79.4048175 18.06505463 78.75104126 18.0246405 78.07745361 17.98300171 C45.50085929 16.00057159 12.84648867 15.68446866 -19.75390625 17.16796875 Z M125.24609375 52.16796875 C125.24244812 52.94755951 125.23880249 53.72715027 125.23504639 54.53036499 C125.19701471 61.91502833 125.13999217 69.29919559 125.06219101 76.68353844 C125.02285727 80.47898337 124.99060047 84.2742012 124.97509766 88.06982422 C124.95983699 91.74003375 124.92522839 95.40961834 124.87778473 99.07954788 C124.86306698 100.4723527 124.85505831 101.8652468 124.8542099 103.25812912 C124.84029667 114.65760683 123.35952912 123.92415133 115.28125 132.4140625 C104.84420887 141.40874862 90.45990115 141.4713661 77.35546875 142.296875 C76.68747002 142.33935427 76.01947128 142.38183353 75.33123016 142.42560005 C53.7345915 143.75342484 32.07315043 143.26956782 10.44897461 143.07855225 C4.48984974 143.02591862 -1.46909961 142.98481725 -7.42841339 142.96121407 C-10.18735686 142.94560069 -12.9457514 142.91270742 -15.70452881 142.87937927 C-17.37951253 142.87168604 -19.05450068 142.86488602 -20.72949219 142.85913086 C-21.48770264 142.84520294 -22.24591309 142.83127502 -23.02709961 142.81692505 C-27.22233196 142.82432186 -29.71581102 143.16591463 -32.75390625 146.16796875 C-31.39456571 150.6167196 -29.69003404 152.68649689 -25.75390625 155.16796875 C-5.95390866 161.16390022 17.44509769 159.44383827 37.93359375 159.85546875 C39.70887451 159.89320404 39.70887451 159.89320404 41.52001953 159.93170166 C53.91727812 160.1825023 66.25759013 160.27816005 78.64453125 159.65234375 C79.60464615 159.60846024 80.56476105 159.56457672 81.55397034 159.5193634 C86.0031563 159.31303455 90.43642569 159.05724664 94.87573242 158.69604492 C106.12798961 157.9813053 112.29791058 160.42888221 120.74038696 167.85440063 C122.9140638 169.75070117 125.21550125 171.46781526 127.515625 173.20703125 C129.03230602 174.39935023 130.54670994 175.59457266 132.05859375 176.79296875 C133.60507241 178.01647275 135.15315475 179.23795352 136.703125 180.45703125 C137.3628833 180.97990723 138.0226416 181.5027832 138.70239258 182.04150391 C140.06222573 183.26621247 140.06222573 183.26621247 141.24609375 183.16796875 C141.29286529 168.0339757 141.32810783 152.89998599 141.34971809 137.76593685 C141.36001991 130.73854592 141.37405925 123.71119996 141.39697266 116.68383789 C141.41907593 109.90168901 141.43066388 103.11958688 141.43584824 96.33740425 C141.43954275 93.75026273 141.44675715 91.16312375 141.45755386 88.57600212 C141.47207757 84.95157222 141.47407129 81.32733519 141.47314453 77.70288086 C141.48393036 76.09957664 141.48393036 76.09957664 141.49493408 74.46388245 C141.52579792 64.33383596 141.52579792 64.33383596 136.62109375 55.79296875 C136.17507812 55.31085938 135.7290625 54.82875 135.26953125 54.33203125 C133.06398762 53.06320499 131.62629436 52.87169691 129.11962891 52.59521484 C127.8413623 52.45422363 126.5630957 52.31323242 125.24609375 52.16796875 Z " fill="#4688EB" transform="translate(90.75390625,23.83203125)"/>
<path d="M0 0 C9.6388486 0 16.20727562 2.44386957 23.24609375 9.0703125 C28.7635169 15.14070679 32.24124806 21.8043637 32.26742554 30.07911682 C32.28022049 31.91083435 32.28022049 31.91083435 32.29327393 33.77955627 C32.29257498 35.1246034 32.29165197 36.46965043 32.29052734 37.81469727 C32.29651451 39.23750155 32.30332049 40.66030258 32.31088257 42.08309937 C32.32852541 45.94040429 32.33323707 49.79762045 32.33451414 53.65496182 C32.33593667 56.06499163 32.34020806 58.47499891 32.34550858 60.88502312 C32.36399941 69.29274808 32.37217991 77.70040967 32.37060547 86.1081543 C32.3694026 93.94663955 32.3905357 101.7848501 32.4220928 109.6232658 C32.44822772 116.35459679 32.45897402 123.08583785 32.45769465 129.8172192 C32.45718442 133.83707689 32.46290163 137.8566901 32.48405075 141.87649727 C32.50338783 145.65476122 32.50358921 149.43254621 32.48901749 153.21082687 C32.48692298 154.59756989 32.4916685 155.98434255 32.5037384 157.37103462 C32.51914264 159.26325184 32.50750561 161.15563176 32.49447632 163.04786682 C32.49556585 164.10696542 32.49665539 165.16606401 32.49777794 166.25725651 C31.8688915 169.72240443 30.78294044 170.8963175 28 173 C23.0016691 173.8061824 20.24778717 173.5295612 16.09765625 170.61328125 C14.73730091 169.53199893 13.3928523 168.43048965 12.0625 167.3125 C10.57594901 166.11925804 9.08895652 164.92656594 7.6015625 163.734375 C6.84520508 163.11755859 6.08884766 162.50074219 5.30957031 161.86523438 C1.57889764 158.85230211 -2.24364189 155.96221575 -6.0625 153.0625 C-7.40774512 152.03280423 -8.75280399 151.00286508 -10.09765625 149.97265625 C-10.71960373 149.51588501 -11.34155121 149.05911377 -11.98234558 148.58850098 C-14 147 -14 147 -15.45748901 145.41532898 C-20.59248573 140.34498203 -26.25348978 140.35968271 -33.08123589 140.3453474 C-35.77482793 140.37246897 -38.46701932 140.4285387 -41.16015625 140.484375 C-43.06983685 140.50069676 -44.97954532 140.51400515 -46.88926697 140.5244751 C-51.9265026 140.55866794 -56.96265707 140.62698164 -61.99938965 140.70458984 C-70.9275126 140.83694794 -79.85636669 140.91326154 -88.78515625 140.984375 C-89.74706501 140.99272873 -90.70897377 141.00108246 -91.70003128 141.00968933 C-154.26605359 141.50486591 -154.26605359 141.50486591 -168.0625 128.4375 C-170.40997563 126.0458366 -171.41328506 124.31023122 -172 121 C-170.07158542 119.46623771 -168.13378206 117.9482818 -166.1875 116.4375 C-165.36668945 115.78104492 -165.36668945 115.78104492 -164.52929688 115.11132812 C-163.0778042 113.99411861 -161.54189429 112.98871133 -160 112 C-157 113 -157 113 -155.0625 115.4375 C-152.63785182 118.44994168 -150.74080525 119.66509434 -146.94799805 120.39477539 C-146.22652588 120.46172607 -145.50505371 120.52867676 -144.76171875 120.59765625 C-143.93994141 120.67693359 -143.11816406 120.75621094 -142.27148438 120.83789062 C-141.41876953 120.91201172 -140.56605469 120.98613281 -139.6875 121.0625 C-138.47223633 121.17948242 -138.47223633 121.17948242 -137.23242188 121.29882812 C-134.48975613 121.55469748 -131.74583433 121.78075174 -129 122 C-127.97511475 122.08540039 -126.95022949 122.17080078 -125.89428711 122.25878906 C-114.5281533 123.11806781 -103.15162608 123.3441819 -91.75802612 123.55734253 C-89.35392741 123.60289751 -86.94989172 123.65189348 -84.54592896 123.70413208 C-71.8575311 123.97728224 -59.22556729 124.13340634 -46.546875 123.48828125 C-45.59021439 123.444151 -44.63355377 123.40002075 -43.64790344 123.35455322 C-39.21474241 123.14647562 -34.79720358 122.88762561 -30.3737793 122.52783203 C-20.46426197 121.8922972 -14.4453971 123.21108746 -6.86289978 129.75315857 C-2.53561765 133.42807776 1.94502196 136.89518816 6.43579102 140.36694336 C7.26284798 141.00818901 8.08990494 141.64943466 8.94202423 142.310112 C10.96035465 143.87469968 12.97969358 145.43796528 15 147 C15.04677268 131.99639044 15.08201464 116.99278654 15.10362434 101.98911953 C15.11392592 95.02226254 15.1279648 88.05545091 15.15087891 81.08862305 C15.17298309 74.36482685 15.1845703 67.64108752 15.18975449 60.91725349 C15.19344884 58.3524406 15.20066295 55.78763028 15.21146011 53.22283745 C15.22598495 49.62954008 15.22797749 46.03643725 15.22705078 42.44311523 C15.23783661 40.85383713 15.23783661 40.85383713 15.24884033 39.23245239 C15.22993044 32.45304727 15.09691542 26.77532923 10.875 21.1875 C7.4903587 18.31382 7.4903587 18.31382 0 17 C0 11.39 0 5.78 0 0 Z " fill="#E34D5E" transform="translate(216,59)"/>
<path d="M0 0 C3.12291165 1.68012647 5.39164837 3.78329674 7 7 C7.52137294 11.82911 7.73402673 15.74166846 5.25 20 C1.11094006 23.67916439 -2.29723489 24.49336702 -7.7421875 24.39453125 C-11.59075968 23.72202988 -13.33977988 21.79323112 -16 19 C-17.73459436 15.53081128 -17.47173877 11.79303468 -17 8 C-12.96137395 0.3405368 -8.26924734 -1.29688506 0 0 Z " fill="#4688EC" transform="translate(169,82)"/>
<path d="M0 0 C3.12291165 1.68012647 5.39164837 3.78329674 7 7 C7.52137294 11.82911 7.73402673 15.74166846 5.25 20 C1.11094006 23.67916439 -2.29723489 24.49336702 -7.7421875 24.39453125 C-11.59075968 23.72202988 -13.33977988 21.79323112 -16 19 C-17.73459436 15.53081128 -17.47173877 11.79303468 -17 8 C-12.96137395 0.3405368 -8.26924734 -1.29688506 0 0 Z " fill="#4688EC" transform="translate(117,82)"/>
<path d="M0 0 C3.12291165 1.68012647 5.39164837 3.78329674 7 7 C7.52137294 11.82911 7.73402673 15.74166846 5.25 20 C1.11094006 23.67916439 -2.29723489 24.49336702 -7.7421875 24.39453125 C-11.59075968 23.72202988 -13.33977988 21.79323112 -16 19 C-17.73459436 15.53081128 -17.47173877 11.79303468 -17 8 C-12.96137395 0.3405368 -8.26924734 -1.29688506 0 0 Z " fill="#4688EC" transform="translate(65,82)"/>
</svg>
