<?xml version="1.0" encoding="UTF-8"?>
<svg version="1.1" xmlns="http://www.w3.org/2000/svg" width="256" height="256">
<path d="M0 0 C5.3783822 4.25005027 9.3459666 9.50016988 10.67578125 16.32421875 C10.92787393 21.96238777 10.33391521 26.50567051 8.49438477 31.86181641 C8.13173303 32.96539804 8.13173303 32.96539804 7.76175499 34.09127426 C6.93322659 36.60251849 6.08759105 39.10767179 5.2421875 41.61328125 C4.62465206 43.47276738 4.00820561 45.33261542 3.39271545 47.19277954 C1.97924108 51.45673029 0.55784741 55.71794849 -0.86834717 59.97766113 C-3.34091065 67.36610232 -5.7938352 74.76097629 -8.24479795 82.15660238 C-14.10232302 99.82982167 -19.98548842 117.49445281 -25.87360609 135.1574986 C-28.12758218 141.91976121 -30.37815096 148.68315448 -32.62805468 155.44677293 C-34.83006496 162.06591624 -37.03441027 168.68427893 -39.24054617 175.30204833 C-40.54471903 179.21431455 -41.84800164 183.1268712 -43.14888191 187.04023361 C-44.36361702 190.69419258 -45.58128732 194.34716082 -46.80111694 197.99942207 C-47.24352826 199.32562172 -47.68494512 200.65215366 -48.12521172 201.97906685 C-57.29641186 229.61164064 -57.29641186 229.61164064 -68.32421875 236.32421875 C-71.36997068 237.33946939 -73.68979205 237.59084835 -76.88671875 237.69921875 C-77.85738281 237.74820313 -78.82804688 237.7971875 -79.828125 237.84765625 C-91.3951459 236.11583413 -98.7325042 227.59461692 -106.515625 219.65625 C-107.7534433 218.41163086 -108.99230763 217.16805123 -110.23216248 215.92546082 C-113.47018251 212.67411477 -116.69249399 209.40761789 -119.91204834 206.13800049 C-122.55221456 203.46225449 -125.20367775 200.79785955 -127.8557291 198.13390064 C-131.01712593 194.95774732 -134.17326631 191.77639618 -137.328125 188.59375 C-137.93038973 187.9865745 -138.53265446 187.37939899 -139.15316963 186.75382423 C-140.84789848 185.04286555 -142.53897641 183.32839032 -144.22875977 181.61254883 C-144.7330954 181.10395325 -145.23743103 180.59535767 -145.75704956 180.0713501 C-148.80395723 176.96724111 -150.21336634 175.47708383 -150.63671875 171.07421875 C-150.27751883 166.7638197 -148.77722265 164.69211667 -146.32421875 161.32421875 C-145.8454126 160.65664551 -145.36660645 159.98907227 -144.87329102 159.30126953 C-142.68732242 156.26514547 -140.48269977 153.24276226 -138.27734375 150.22070312 C-134.49076467 145.00749038 -130.85835145 139.71173311 -127.32421875 134.32421875 C-127.79617676 134.66565918 -128.26813477 135.00709961 -128.75439453 135.35888672 C-131.80572622 137.56587124 -134.85710386 139.77275051 -137.9128418 141.97363281 C-141.77655266 144.75650338 -145.63381086 147.54587505 -149.4609375 150.37890625 C-150.08532715 150.83668457 -150.7097168 151.29446289 -151.35302734 151.76611328 C-152.51333043 152.61704456 -153.66890309 153.47447698 -154.81884766 154.33935547 C-157.9364574 156.61115414 -160.41600201 158.25059457 -164.32421875 158.32421875 C-169.05112865 156.35309809 -172.4283975 153.65705981 -175.99072266 150.06176758 C-176.52162003 149.53773346 -177.0525174 149.01369934 -177.59950256 148.4737854 C-179.34097624 146.7505149 -181.07123837 145.01648857 -182.80078125 143.28125 C-184.01537297 142.07122374 -185.23033464 140.86156873 -186.44564819 139.65226746 C-188.98737857 137.11945594 -191.52337258 134.58106554 -194.05566406 132.03881836 C-197.28956663 128.79343833 -200.5390287 125.5641638 -203.79323769 122.33916187 C-206.30543241 119.84538081 -208.80817822 117.34228037 -211.30833054 114.8364315 C-212.5020708 113.64253861 -213.69889009 112.45171564 -214.89891434 111.26413918 C-230.26785193 96.03225491 -230.26785193 96.03225491 -230.63671875 85.19921875 C-230.55132365 77.70884889 -227.17333869 71.85433532 -222.32421875 66.32421875 C-213.68881007 60.4723417 -203.06614196 57.72933851 -193.21826172 54.6328125 C-188.41625933 53.12218435 -183.62478411 51.57873349 -178.83203125 50.0390625 C-177.8588092 49.72726044 -176.88558716 49.41545837 -175.88287354 49.09420776 C-166.65293223 46.12881164 -157.48546382 42.99423416 -148.32421875 39.82421875 C-133.73050072 34.78667561 -119.08210783 29.94241639 -104.3840332 25.21826172 C-93.43331845 21.68880849 -82.52768793 18.04332541 -71.64488602 14.31078148 C-67.17035373 12.77855619 -62.69200293 11.25751108 -58.21385384 9.7358942 C-53.79412634 8.23242908 -49.38132519 6.71048204 -44.97262478 5.17500591 C-42.18705023 4.2099768 -39.39553064 3.26311125 -36.60226631 2.32060051 C-34.68812253 1.66868998 -32.78136547 0.99521276 -30.87498474 0.32093811 C-21.22244313 -2.90813344 -9.28798955 -5.66825915 0 0 Z M-18.41584778 14.61016846 C-19.70285835 15.0385199 -19.70285835 15.0385199 -21.01586914 15.4755249 C-21.96042969 15.79329895 -22.90499023 16.111073 -23.87817383 16.43847656 C-25.36954109 16.9362561 -25.36954109 16.9362561 -26.89103699 17.4440918 C-30.20953104 18.5524347 -33.52660859 19.66495975 -36.84375 20.77734375 C-39.17353712 21.55603276 -41.50342882 22.33440897 -43.8334198 23.11248779 C-50.01298281 25.17679493 -56.19143352 27.24440984 -62.36956787 29.31298828 C-73.29720682 32.97152802 -84.22632512 36.6256395 -95.15625 40.27734375 C-96.33755745 40.67215942 -97.5188649 41.0669751 -98.73596954 41.47375488 C-114.94252725 46.88846712 -131.17131964 52.22681366 -147.43327332 57.47259521 C-157.99842629 60.88206134 -168.53068345 64.37880133 -179.02832031 67.99121094 C-181.54771092 68.85810896 -184.06867184 69.72032866 -186.58984375 70.58203125 C-190.50241102 71.92073235 -194.4103374 73.27227659 -198.31604004 74.63085938 C-200.163649 75.26877919 -202.01665659 75.89100597 -203.87011719 76.51171875 C-204.86301758 76.85203125 -205.85591797 77.19234375 -206.87890625 77.54296875 C-207.70632324 77.82076172 -208.53374023 78.09855469 -209.38623047 78.38476562 C-211.66585068 79.28768364 -211.66585068 79.28768364 -213.32421875 82.32421875 C-213.38964973 85.79206083 -213.29793613 88.2695758 -210.8671875 90.90234375 C-209.65574434 91.90528144 -208.42293301 92.88287277 -207.171875 93.8359375 C-205.32666426 95.3222489 -203.97034871 96.84000981 -202.51171875 98.69921875 C-201.78984375 99.56546875 -201.06796875 100.43171875 -200.32421875 101.32421875 C-199.66421875 101.32421875 -199.00421875 101.32421875 -198.32421875 101.32421875 C-198.32421875 101.98421875 -198.32421875 102.64421875 -198.32421875 103.32421875 C-197.66421875 103.32421875 -197.00421875 103.32421875 -196.32421875 103.32421875 C-196.0575943 103.91616028 -195.79096985 104.50810181 -195.51626587 105.11798096 C-194.30012754 107.3688067 -193.06111447 108.82908641 -191.25146484 110.62402344 C-190.6309726 111.24436462 -190.01048035 111.86470581 -189.3711853 112.50384521 C-188.70342072 113.16128723 -188.03565613 113.81872925 -187.34765625 114.49609375 C-186.66240875 115.17851135 -185.97716125 115.86092896 -185.27114868 116.56402588 C-183.0851603 118.73883473 -180.89231446 120.90657947 -178.69921875 123.07421875 C-177.2143862 124.54901865 -175.73000569 126.02427381 -174.24609375 127.5 C-170.61068965 131.11337323 -166.96912051 134.72042728 -163.32421875 138.32421875 C-159.7026227 136.57516073 -156.51211272 134.42787183 -153.26171875 132.07421875 C-152.65884033 131.64093262 -152.05596191 131.20764648 -151.43481445 130.76123047 C-145.44147013 126.43962241 -139.5086294 122.03591235 -133.56835938 117.6418457 C-127.66604878 113.28635972 -121.70487484 109.02416632 -115.69726562 104.81542969 C-111.90999082 102.15934938 -108.14406696 99.47780246 -104.40234375 96.7578125 C-103.17753296 95.86751343 -103.17753296 95.86751343 -101.92797852 94.95922852 C-100.3536966 93.81251756 -98.78117569 92.66338382 -97.21069336 91.51147461 C-96.49921143 90.99335205 -95.78772949 90.47522949 -95.0546875 89.94140625 C-94.11725708 89.25473877 -94.11725708 89.25473877 -93.16088867 88.55419922 C-90.00323003 86.43957949 -88.12906504 85.29136788 -84.26171875 85.44921875 C-81.32421875 86.32421875 -81.32421875 86.32421875 -79.44921875 88.01171875 C-77.9614162 91.06997954 -77.98122891 92.93515243 -78.32421875 96.32421875 C-79.61663816 98.59637545 -80.86185973 100.46944586 -82.44921875 102.51171875 C-82.89007813 103.10339844 -83.3309375 103.69507812 -83.78515625 104.3046875 C-84.75895656 105.61022198 -85.73876084 106.91129351 -86.72363281 108.20849609 C-89.0203861 111.24444241 -91.27185093 114.31310962 -93.52685547 117.38012695 C-94.73233701 119.01936571 -95.93971772 120.6572094 -97.14892578 122.29370117 C-100.98085882 127.48037376 -104.75814144 132.70094997 -108.48510742 137.96337891 C-110.91235855 141.37928965 -113.37953255 144.76243548 -115.875 148.12890625 C-116.49697266 148.96808594 -117.11894531 149.80726563 -117.75976562 150.671875 C-118.97581414 152.30930141 -120.19440646 153.94484294 -121.41601562 155.578125 C-124.96619305 160.35767815 -128.25777491 165.22016351 -131.32421875 170.32421875 C-130.80472656 170.77152344 -130.28523438 171.21882812 -129.75 171.6796875 C-125.79840384 175.10537807 -121.97510323 178.57466171 -118.32421875 182.32421875 C-117.49921875 183.14921875 -116.67421875 183.97421875 -115.82421875 184.82421875 C-114.99921875 185.64921875 -114.17421875 186.47421875 -113.32421875 187.32421875 C-112.47859375 188.14921875 -111.63296875 188.97421875 -110.76171875 189.82421875 C-108.42972932 192.21600278 -106.40906404 194.71816214 -104.32421875 197.32421875 C-103.19194625 198.47136162 -102.05743371 199.61638136 -100.91162109 200.75 C-98.99183389 202.65384311 -97.09010617 204.57508217 -95.1875 206.49609375 C-93.67062835 208.02219051 -92.15369995 209.54823088 -90.63671875 211.07421875 C-89.47946289 212.24404297 -89.47946289 212.24404297 -88.29882812 213.4375 C-87.1918457 214.54931641 -87.1918457 214.54931641 -86.0625 215.68359375 C-85.0576355 216.69631348 -85.0576355 216.69631348 -84.0324707 217.72949219 C-81.69289562 219.91358601 -80.62029232 220.299021 -77.38671875 220.57421875 C-74.44279599 220.58795157 -74.44279599 220.58795157 -72.810009 219.29130268 C-70.59492568 216.35868497 -69.62246829 213.05353815 -68.48907471 209.60087585 C-68.22037496 208.80625326 -67.95167522 208.01163067 -67.67483306 207.19292861 C-66.7749387 204.52425083 -65.88800231 201.85144695 -65.00097656 199.1784668 C-64.35925977 197.26635501 -63.71679047 195.35449563 -63.07362366 193.44287109 C-61.32767603 188.24526242 -59.59331888 183.04385556 -57.86171436 177.84145331 C-56.41606467 173.50129934 -54.96506697 169.16294134 -53.51414084 164.82454902 C-50.0917351 154.59063982 -46.67894855 144.35355724 -43.27197266 134.11450195 C-39.7552326 123.54615898 -36.22200948 112.98343017 -32.68067098 102.42330712 C-29.64246349 93.36149782 -26.61469809 84.296246 -23.59526134 75.22816497 C-21.79105471 69.81010033 -19.98284718 64.39345478 -18.16452789 58.98010826 C-16.45508535 53.88944474 -14.75870652 48.79461367 -13.07232475 43.69626617 C-12.45095013 41.82503081 -11.82495748 39.95532172 -11.1940403 38.08728218 C-10.33395799 35.53832233 -9.49067968 32.98439309 -8.65142822 30.42851257 C-8.3976501 29.68930106 -8.14387198 28.95008955 -7.88240361 28.18847769 C-6.49058405 23.87782858 -5.98833771 20.6957005 -7.32421875 16.32421875 C-11.52420934 13.09345676 -13.59600583 12.99679167 -18.41584778 14.61016846 Z " fill="#00A6FA" transform="translate(237.32421875,10.67578125)"/>
<path d="M0 0 C2.75156157 2.53433302 3.87903574 4.06121219 4.359375 7.7890625 C3.91135258 11.79204541 2.27481165 14.09993744 -0.125 17.1875 C-0.78628906 18.07501953 -0.78628906 18.07501953 -1.4609375 18.98046875 C-2.43473781 20.28600323 -3.41454209 21.58707476 -4.39941406 22.88427734 C-6.69616735 25.92022366 -8.94763218 28.98889087 -11.20263672 32.0559082 C-12.40811826 33.69514696 -13.61549897 35.33299065 -14.82470703 36.96948242 C-18.65630401 42.15570014 -22.43094107 47.37738377 -26.16088867 52.63696289 C-30.39727027 58.5928323 -34.74410046 64.4669184 -39.09179688 70.34179688 C-41.68846101 73.85248678 -44.27137494 77.36848637 -46.79296875 80.93359375 C-48.72105722 83.61244234 -50.60342213 85.75320825 -53 88 C-53.78375 88.9075 -54.5675 89.815 -55.375 90.75 C-58 93 -58 93 -61.3125 93.3125 C-62.199375 93.209375 -63.08625 93.10625 -64 93 C-64.33 92.01 -64.66 91.02 -65 90 C-67.01508358 89.26676204 -67.01508358 89.26676204 -69 89 C-69.46058833 83.24264591 -68.28384183 80.48958834 -65 76 C-64.52111328 75.33258789 -64.04222656 74.66517578 -63.54882812 73.97753906 C-61.36335365 70.94095124 -59.15853237 67.91861387 -56.953125 64.89648438 C-53.16654592 59.68327163 -49.5341327 54.38751436 -46 49 C-46.70793701 49.51216064 -46.70793701 49.51216064 -47.43017578 50.03466797 C-50.48150747 52.24165249 -53.53288511 54.44853176 -56.58862305 56.64941406 C-60.45233391 59.43228463 -64.30959211 62.2216563 -68.13671875 65.0546875 C-69.07330322 65.74135498 -69.07330322 65.74135498 -70.02880859 66.44189453 C-71.18911168 67.29282581 -72.34468434 68.15025823 -73.49462891 69.01513672 C-76.61802482 71.29115177 -79.11919032 72.68157459 -83 73 C-85.75 72.25 -85.75 72.25 -88 71 C-89.25034507 67.24896479 -89.91757061 63.8669047 -89 60 C-86.99526437 57.50720046 -84.74439707 55.63918739 -82 54 C-81.34 54 -80.68 54 -80 54 C-79.79246094 53.43023437 -79.58492187 52.86046875 -79.37109375 52.2734375 C-77.52268868 49.20856072 -74.97213153 47.58639434 -72.0625 45.625 C-70.78790125 44.74125582 -69.51452973 43.85573985 -68.2421875 42.96875 C-67.55737305 42.49308594 -66.87255859 42.01742187 -66.16699219 41.52734375 C-62.29030549 38.79496971 -58.49481519 35.95279331 -54.6875 33.125 C-47.97632168 28.15835245 -41.21098154 23.28164672 -34.37304688 18.49121094 C-30.58577207 15.83513063 -26.81984821 13.15358371 -23.078125 10.43359375 C-22.26158447 9.84006104 -21.44504395 9.24652832 -20.60375977 8.63500977 C-19.02947785 7.48829881 -17.45695694 6.33916507 -15.88647461 5.18725586 C-15.17499268 4.6691333 -14.46351074 4.15101074 -13.73046875 3.6171875 C-13.10551514 3.15940918 -12.48056152 2.70163086 -11.83666992 2.22998047 C-7.55199864 -0.63937669 -5.11804709 -1.59938971 0 0 Z " fill="#24333B" transform="translate(156,96)"/>
</svg>
